<svg xmlns="http://www.w3.org/2000/svg" viewBox="0 0 512 512"><defs><filter id="a" width="1.132" height="1.11" x="-.066" y="-.055" color-interpolation-filters="sRGB"><feGaussianBlur stdDeviation="2.903"/></filter></defs><circle cx="256" cy="256" r="247" fill="#282c34"/><path fill="#de6a73" d="M257.9 152.3c10.3 0 20.6 1.5 30.9 4.3 7.5 2.1 13.9-.2 17.8-7l21.9-39.1c.7-1.2.8-3.4.8-4.8a10.13 10.13 0 0 0-.8-4.2c-2.8-6.5-8.8-9.3-14.7-11.8-13.7-5.6-28.2-7.6-42.8-8.7-4.4-.3-8.8-.5-13.1-.6-4.4 0-8.7.2-13.1.6-14.6 1.1-29.1 3.1-42.8 8.7-5.9 2.4-11.9 5.3-14.7 11.8a10.13 10.13 0 0 0-.8 4.2c0 1.4.2 3.6.8 4.8l21.9 39.1c3.9 6.8 10.3 9.1 17.8 7 10.3-2.8 20.6-4.2 30.9-4.3"/><path fill="#c678dd" d="M346.1 204.8c5.2 8.9 9.2 18.5 11.9 28.9 2 7.5 7.2 11.9 15.1 11.8l44.8-.9c1.4 0 3.4-1 4.6-1.7 1.4-.8 2.2-1.5 3.2-2.8 4.2-5.7 3.6-12.3 2.7-18.7-2.1-14.6-7.7-28.2-14.1-41.3-1.9-4-4-7.8-6.1-11.6-2.2-3.7-4.6-7.4-7.1-11-8.4-12-17.4-23.6-29.2-32.5-5.1-3.9-10.6-7.6-17.6-6.7-1.6.2-2.6.6-4 1.4-1.2.7-3 2-3.7 3.2L324 161.6c-3.9 6.8-2.6 13.5 3 18.9 7.4 7.2 13.9 15.4 19.1 24.3"/><path fill="#61afef" d="M344.2 309.6c-5.3 8.9-11.8 17-19.5 24.4-5.6 5.4-6.9 12.1-3.1 18.9l22.5 38.8c.7 1.2 2.5 2.5 3.7 3.2 1.4.8 2.4 1.2 4 1.4 7 .9 12.5-2.8 17.6-6.7 11.8-8.9 20.9-20.4 29.3-32.4 2.5-3.6 4.9-7.3 7.2-11 2.2-3.8 4.2-7.6 6.2-11.6 6.5-13.1 12.2-26.7 14.3-41.3.9-6.3 1.5-12.9-2.6-18.7-.9-1.3-1.8-2-3.2-2.8-1.2-.7-3.2-1.7-4.6-1.7l-44.8-1.1c-7.8-.1-13.1 4.2-15.1 11.8-2.7 10.3-6.7 19.9-11.9 28.8"/><path fill="#98c379" d="M257.9 359.7c10.3 0 20.6-1.5 30.9-4.3 7.5-2.1 13.9.2 17.8 7l21.9 39.1c.7 1.2.8 3.4.8 4.8a10.13 10.13 0 0 1-.8 4.2c-2.8 6.5-8.8 9.3-14.7 11.8-13.7 5.6-28.2 7.6-42.8 8.7-4.4.3-8.8.5-13.1.6-4.4 0-8.7-.2-13.1-.6-14.6-1.1-29.1-3.1-42.8-8.7-5.9-2.4-11.9-5.3-14.7-11.8a10.13 10.13 0 0 1-.8-4.2c0-1.4.2-3.6.8-4.8l21.9-39.1c3.9-6.8 10.3-9.1 17.8-7 10.3 2.8 20.6 4.2 30.9 4.3"/><path fill="#d19a66" d="M167.8 309.6c5.3 8.9 11.8 17 19.5 24.4 5.6 5.4 6.9 12.1 3.1 18.9l-22.5 38.8c-.7 1.2-2.5 2.5-3.7 3.2-1.4.8-2.4 1.2-4 1.4-7 .9-12.5-2.8-17.6-6.7-11.8-8.9-20.9-20.4-29.3-32.4-2.5-3.6-4.9-7.3-7.2-11-2.2-3.8-4.2-7.6-6.2-11.6-6.5-13.1-12.2-26.7-14.3-41.3-.9-6.3-1.5-12.9 2.6-18.7.9-1.3 1.8-2 3.2-2.8 1.2-.7 3.2-1.7 4.6-1.7l44.8-1.1c7.8-.1 13.1 4.2 15.1 11.8 2.7 10.3 6.7 19.9 11.9 28.8"/><path fill="#abb2bf" d="M165.9 204.8c-5.2 8.9-9.2 18.5-11.9 28.9-2 7.5-7.2 11.9-15.1 11.8l-44.8-.9c-1.4 0-3.4-1-4.6-1.7-1.4-.8-2.2-1.5-3.2-2.8-4.2-5.7-3.6-12.3-2.7-18.7 2.1-14.6 7.7-28.2 14.1-41.3 1.9-4 4-7.8 6.1-11.6 2.2-3.7 4.6-7.4 7.1-11 8.4-12 17.4-23.6 29.2-32.5 5.1-3.9 10.6-7.6 17.6-6.7 1.6.2 2.6.6 4 1.4 1.2.7 3 2 3.7 3.2l22.6 38.7c3.9 6.8 2.6 13.5-3 18.9-7.4 7.2-13.9 15.4-19.1 24.3"/><g fill="#cc241d"><path d="M154.098 395.769c-7.671-2.107-19.203-11.562-30.165-24.731-17.69-21.251-32.432-49.866-37.113-72.038-2.179-10.322-2.19-16.733-.038-21.436 1.511-3.3 2.737-4.593 5.713-6.027l2.733-1.316 18.601-.406 23.394-.602c11.373-.465 16.022 2.745 18.948 13.084 5.49 19.398 14.218 34.452 28.673 49.456 6.089 6.321 7.372 8.612 7.394 13.204.007 1.584-.201 3.587-.462 4.452-.824 2.724-23.239 41.421-25.145 43.412-2.807 2.931-8.083 4.172-12.533 2.95z"/><path d="M154.73 395.772c-6.961-1.509-18.083-10.203-28.681-22.419-18.822-21.696-34.858-52.528-39.374-75.703-2.038-10.458-1.801-16.361.858-21.387 1.08-2.042 2.646-3.449 5.353-4.81l2.205-1.109 16.324-.388 23.375-.555c8.258-.195 10.421.065 13.595 1.633 3.8 1.878 5.817 5.018 8.106 12.619 5.716 18.979 13.302 32.012 27.601 47.414 4.826 5.198 5.94 6.614 7.077 8.993.805 1.685.842 1.914.842 5.201v3.438l-1.697 3.363c-2.804 5.557-16.367 29.103-21.245 36.883-1.051 1.676-2.36 3.511-2.908 4.078-1.259 1.3-3.186 2.249-5.612 2.763-2.3.487-3.523.484-5.819-.013z"/></g><path fill="#a6ac54" d="M110.246 244.776c-16.215-.388-17.378-.483-19.71-1.612-5.153-2.494-7.598-8.261-7.11-16.766.745-12.977 5.86-28.898 15.406-47.947 12.857-25.657 35.357-52.152 49.56-58.36 5.984-2.615 12.033-1.933 15.54 1.752 1.571 1.651 19.706 32.073 23.964 40.199 1.684 3.215 1.952 4.229 1.935 7.322-.026 4.748-1.342 7.201-7.018 13.082-13.628 14.121-22.75 29.657-28.018 47.716-2.059 7.06-3.065 9.054-5.822 11.544-4.302 3.886-4.351 3.89-38.727 3.068z"/><path fill="#fabd2f" d="M215.598 155.465c-1.568-.82-3.531-2.346-4.363-3.39s-6.577-10.929-12.767-21.966c-10.274-18.318-11.276-20.335-11.489-23.129-.314-4.116.554-6.427 3.715-9.885 3.227-3.531 7.68-5.959 16.513-9.002 27.832-9.589 73.594-9.6 101.349-.022 8.292 2.861 12.329 4.925 15.578 7.964 5.014 4.69 6.233 10.289 3.403 15.638-4.858 9.182-21.688 38.822-22.942 40.402-.828 1.044-2.788 2.569-4.356 3.39-3.662 1.916-7.436 1.961-14.561.176-10.116-2.535-16.45-3.281-27.759-3.268s-17.834.781-27.759 3.268c-7.125 1.786-10.899 1.74-14.561-.176z"/><path fill="#83a598" d="M367.576 244.345c-3.025-1.059-6.159-3.645-7.484-6.174-.431-.823-2.085-5.46-3.675-10.305-5.913-18.016-13.744-31.223-26.493-44.677-7.251-7.652-8.935-11.485-7.477-17.019.956-3.628 23.086-41.866 25.805-44.588 3.822-3.827 10.086-4.12 16.627-.779 14.19 7.248 35.235 32.089 47.452 56.011 10.604 20.765 16 37.834 16.108 50.954.051 6.259-.017 6.68-1.584 9.749-1.146 2.245-2.357 3.691-4.035 4.818-2.212 1.486-2.905 1.64-8.939 1.992-3.597.21-14.839.527-24.981.704-17.081.299-18.653.249-21.325-.687z"/><g fill="#d3869b"><path d="M348.707 395.039c-1.225-.607-2.728-1.644-3.34-2.305-1.841-1.99-23.953-40.212-24.98-43.181-.941-2.719-.757-7.063.409-9.63.563-1.24 3.27-4.656 6.016-7.593 14.911-15.948 23.197-29.934 28.517-48.132 2.688-9.194 5.297-12.566 11.021-14.241 2.637-.772 5.4-.794 26.847-.222 22.175.591 24.076.718 26.214 1.741 5.408 2.588 7.489 7.607 7.04 16.981-1.514 31.615-32.465 84.485-60.329 103.056-7.061 4.706-12.718 5.851-17.414 3.526z"/><path d="M350.516 395.447c-3.788-1.222-5.451-3.214-12.182-14.584-7.014-11.848-14.974-25.796-16.956-29.713-1.456-2.877-1.65-7.957-.415-10.872.442-1.044 2.73-4.07 5.083-6.725 16.319-18.408 22.843-29.092 28.682-46.97 3.664-11.219 5.671-14.268 10.52-15.979 2.805-.99 18.507-1.111 39.201-.303 14.313.559 15.351.795 18.412 4.187 2.753 3.051 3.413 6.252 3.044 14.756-1.343 30.955-32.518 84.046-59.926 102.057-5.976 3.927-11.528 5.415-15.464 4.145z"/></g><path fill="#8ec07c" d="M244.901 430.848c-19.554-1.825-31.031-4.14-41.83-8.438-12.074-4.805-16.705-9.827-16.079-17.436.212-2.576.839-4.155 3.504-8.832l11.549-20.536c4.567-8.163 9.126-15.663 10.131-16.668 4.208-4.208 8.514-4.885 17.364-2.73 9.486 2.31 15.583 3.124 25.666 3.426 11.034.331 18.984-.507 30.044-3.167 10.087-2.425 14.115-1.88 18.355 2.486 1.95 2.008 3.681 4.945 16.78 28.465 8.243 14.8 8.582 15.531 8.571 18.441-.015 3.774-1.298 6.675-4.253 9.617-6.528 6.5-24.729 12.3-45.657 14.549-9.7 1.042-27.263 1.466-34.146.823z"/><path fill="#b8bb26" d="M92.571 243.521c-16.434-3.154-7.392-45.641 17.881-84.016 14-21.257 35.395-40.689 44.8-40.689 6.166 0 9.176 3.454 21.96 25.198 14.943 25.416 15.048 27.096 2.597 41.495-11.694 13.524-19.059 26.092-24.019 40.985-5.952 17.873-6.528 18.161-35.776 17.906-13.175-.115-25.525-.51-27.444-.879z" opacity=".95"/><path fill="#fb4934" d="M152.096 394.805c-10.962-4.47-27.193-21.083-41.079-42.046-14.316-21.611-24.928-49.329-24.928-65.11 0-7.835.606-10.037 3.579-13.01 3.34-3.34 5.221-3.654 28.207-4.699 33.294-1.515 32.479-1.98 42.531 24.293 4.854 12.686 11.401 23.025 22.905 36.168 6.312 7.211 8.628 11.074 8.628 14.391 0 4.63-18.787 39.327-25.126 46.405-3.891 4.344-9.526 5.725-14.718 3.608z" filter="url(#a)" opacity=".95"/></svg>